<svg xmlns="http://www.w3.org/2000/svg" xmlns:xlink="http://www.w3.org/1999/xlink" width="500" zoomAndPan="magnify" viewBox="0 0 375 374.999991" height="500" preserveAspectRatio="xMidYMid meet" version="1.0"><defs><g/></defs><rect x="-37.5" width="450" fill="#ffffff" y="-37.499999" height="449.999989" fill-opacity="1"/><rect x="-37.5" width="450" fill="#ffffff" y="-37.499999" height="449.999989" fill-opacity="1"/><g fill="#000000" fill-opacity="1"><g transform="translate(47.725009, 237.734132)"><g><path d="M 127.359375 2.890625 C 104.398438 2.890625 84.523438 -1.015625 67.734375 -8.828125 C 50.941406 -16.640625 38.054688 -28.023438 29.078125 -42.984375 C 20.109375 -57.941406 15.625 -76.222656 15.625 -97.828125 C 15.625 -112.492188 18.375 -126.242188 23.875 -139.078125 C 29.375 -151.910156 37.285156 -163.25 47.609375 -173.09375 C 57.929688 -182.9375 70.28125 -190.65625 84.65625 -196.25 C 99.039062 -201.84375 115.109375 -204.640625 132.859375 -204.640625 C 139.992188 -204.640625 147.757812 -204.15625 156.15625 -203.1875 C 164.550781 -202.226562 172.5625 -200.734375 180.1875 -198.703125 C 187.8125 -196.679688 194.128906 -193.929688 199.140625 -190.453125 L 200.296875 -152.25 L 196.828125 -151.390625 C 192.960938 -161.421875 187.269531 -169.957031 179.75 -177 C 172.226562 -184.039062 163.785156 -189.488281 154.421875 -193.34375 C 145.066406 -197.207031 135.367188 -199.140625 125.328125 -199.140625 C 109.890625 -199.140625 96.238281 -195.757812 84.375 -189 C 72.507812 -182.25 63.195312 -172.363281 56.4375 -159.34375 C 49.6875 -146.320312 46.3125 -130.160156 46.3125 -110.859375 C 46.3125 -96.960938 48.335938 -83.550781 52.390625 -70.625 C 56.441406 -57.695312 62.28125 -46.164062 69.90625 -36.03125 C 77.53125 -25.90625 86.890625 -17.898438 97.984375 -12.015625 C 109.078125 -6.128906 121.664062 -3.1875 135.75 -3.1875 C 151.957031 -3.1875 165.5625 -7.71875 176.5625 -16.78125 C 187.5625 -25.851562 195.664062 -37.914062 200.875 -52.96875 L 204.640625 -52.390625 L 200.015625 -11 C 192.296875 -7.519531 182.691406 -4.332031 171.203125 -1.4375 C 159.722656 1.445312 145.109375 2.890625 127.359375 2.890625 Z M 127.359375 2.890625 "/></g></g></g><g fill="#000000" fill-opacity="1"><g transform="translate(109.874099, 303.54074)"><g><path d="M 127.359375 2.890625 C 104.398438 2.890625 84.523438 -1.015625 67.734375 -8.828125 C 50.941406 -16.640625 38.054688 -28.023438 29.078125 -42.984375 C 20.109375 -57.941406 15.625 -76.222656 15.625 -97.828125 C 15.625 -112.492188 18.375 -126.242188 23.875 -139.078125 C 29.375 -151.910156 37.285156 -163.25 47.609375 -173.09375 C 57.929688 -182.9375 70.28125 -190.65625 84.65625 -196.25 C 99.039062 -201.84375 115.109375 -204.640625 132.859375 -204.640625 C 139.992188 -204.640625 147.757812 -204.15625 156.15625 -203.1875 C 164.550781 -202.226562 172.5625 -200.734375 180.1875 -198.703125 C 187.8125 -196.679688 194.128906 -193.929688 199.140625 -190.453125 L 200.296875 -152.25 L 196.828125 -151.390625 C 192.960938 -161.421875 187.269531 -169.957031 179.75 -177 C 172.226562 -184.039062 163.785156 -189.488281 154.421875 -193.34375 C 145.066406 -197.207031 135.367188 -199.140625 125.328125 -199.140625 C 109.890625 -199.140625 96.238281 -195.757812 84.375 -189 C 72.507812 -182.25 63.195312 -172.363281 56.4375 -159.34375 C 49.6875 -146.320312 46.3125 -130.160156 46.3125 -110.859375 C 46.3125 -96.960938 48.335938 -83.550781 52.390625 -70.625 C 56.441406 -57.695312 62.28125 -46.164062 69.90625 -36.03125 C 77.53125 -25.90625 86.890625 -17.898438 97.984375 -12.015625 C 109.078125 -6.128906 121.664062 -3.1875 135.75 -3.1875 C 151.957031 -3.1875 165.5625 -7.71875 176.5625 -16.78125 C 187.5625 -25.851562 195.664062 -37.914062 200.875 -52.96875 L 204.640625 -52.390625 L 200.015625 -11 C 192.296875 -7.519531 182.691406 -4.332031 171.203125 -1.4375 C 159.722656 1.445312 145.109375 2.890625 127.359375 2.890625 Z M 127.359375 2.890625 "/></g></g></g></svg>